<svg xmlns="http://www.w3.org/2000/svg" viewBox="0 0 128 128">
  <defs>
    <filter id="shadow" x="-20%" y="-20%" width="140%" height="150%">
      <feDropShadow dx="0" dy="4" stdDeviation="5" flood-color="#17212b" flood-opacity="0.28"/>
    </filter>
  </defs>
  <g filter="url(#shadow)">
    <ellipse cx="64" cy="104" rx="36" ry="11" fill="#f2c8a1"/>
    <path d="M31 112c9 8 57 8 66 0v9c-9 9-57 9-66 0z" fill="#c67c56"/>
    <circle cx="64" cy="27" r="13" fill="#f6d6b7"/>
    <path d="M39 21c0 26 13 43 38 45v47a9 9 0 0 0 18 0V66c25-2 38-19 38-45a5 5 0 0 0-10 0c0 22-11 35-32 35H77a8 8 0 0 0-8 8v49a5 5 0 0 1-10 0V64a8 8 0 0 0-8-8H37C16 56 5 43 5 21a5 5 0 0 0-10 0c0 30 16 49 44 55v37a25 25 0 0 0 50 0V76c28-6 44-25 44-55a5 5 0 0 0-10 0c0 22-10 36-29 42l-5 2v48a15 15 0 0 1-30 0V65l-5-2C35 57 25 43 25 21a7 7 0 0 1 14 0z" fill="#58c794" transform="translate(0 -2) scale(.97) translate(2 0)"/>
  </g>
</svg>
